<svg xmlns="http://www.w3.org/2000/svg" viewBox="22 65 166 166" fill="none">
  <path
    d="m 102.34971,68.005175 c 1.56072,-0.20493 3.41473,-0.17345 4.93889,0.02668 0.77506,0.10177 1.48482,0.0748 2.29306,0.07485 0.55585,3.2e-5 0.88966,-0.01968 1.41111,0.02994 0.47932,0.04562 0.7558,0.109382 1.23472,0.142089 2.73083,0.186498 5.71824,0.679513 8.46667,1.23976 15.06956,3.071809 28.05304,10.404673 39.51111,20.510796 3.31312,2.922204 6.31063,6.487502 8.97296,10.00381 1.2401,1.63786 2.51526,3.42259 3.60495,5.11527 6.53562,10.15212 10.62374,21.99083 12.1662,33.86667 0.14034,1.08046 0.27418,1.98933 0.30052,2.99861 0.0149,0.57099 0.003,0.8477 0.0774,1.41111 0.069,0.52505 0.0987,0.8496 0.1014,1.41111 0.0102,2.1051 0.0246,5.29749 -5.3e-4,7.40834 -0.0799,6.72088 -1.74054,14.59465 -3.99801,21.51944 -3.72384,11.42285 -10.19701,22.38441 -18.57977,30.86806 -1.21085,1.22543 -2.45876,2.43731 -3.70349,3.55757 -7.92677,7.13422 -17.0564,12.83139 -27.16388,16.42867 -4.24006,1.50905 -8.61817,2.71039 -13.05278,3.45919 -1.04275,0.17607 -2.16904,0.3615 -3.175,0.49378 -1.46027,0.19201 -3.05908,0.29292 -4.40972,0.45282 -0.53101,0.0628 -0.86396,0.1188 -1.41112,0.12534 -0.55194,0.007 -0.85455,-0.0223 -1.41111,0.0306 -0.5317,0.0506 -0.9029,0.13141 -1.41111,0.14387 -1.19964,0.0294 -3.16546,0.008 -4.40972,0.002 -0.69992,-0.003 -1.12776,-0.0858 -1.76389,-0.14631 -0.62174,-0.0592 -0.91949,-0.0162 -1.5875,-0.0325 -0.40413,-0.01 -0.667724,-0.0476 -1.058333,-0.099 -0.399561,-0.0525 -0.668671,-0.0594 -1.058334,-0.0811 -1.793914,-0.0998 -3.771651,-0.40377 -5.644454,-0.71338 -5.175506,-0.85559 -10.248405,-2.19931 -15.169443,-4.03394 -11.908981,-4.43983 -22.816103,-11.80394 -31.25064,-21.17551 -5.839303,-6.48802 -10.723497,-13.81769 -14.282056,-21.87222 -2.365629,-5.35444 -4.092515,-11.02535 -5.232054,-16.75695 -0.168591,-0.84797 -0.291864,-1.63114 -0.431581,-2.46944 -0.956589,-5.73953 -1.017089,-10.77234 -1.014781,-16.75695 2.42e-4,-0.62562 5.43e-4,-1.02151 0.07486,-1.5875 0.06941,-0.5286 0.09295,-0.86508 0.102077,-1.41111 0.02462,-1.47265 0.214103,-3.03509 0.456352,-4.58611 0.51626,-3.30543 1.110465,-6.62366 1.947218,-9.87778 2.044931,-7.95269 5.472885,-15.71837 9.888803,-22.57778 1.17357,-1.82295 2.519841,-3.73627 3.899745,-5.468053 4.426591,-5.55538 9.273684,-10.572557 14.85178,-14.955893 1.743483,-1.37005 3.591576,-2.631988 5.468057,-3.857021 6.918259,-4.516498 14.604701,-7.931363 22.577776,-10.088187 4.467352,-1.208475 9.297059,-2.152635 13.758334,-2.511227 0.402672,-0.03236 0.653121,-0.09278 1.058333,-0.131344 0.531024,-0.05053 0.904655,-0.02991 1.411113,-0.02994 0.916858,-6.5e-5 1.764798,0.01415 2.645828,-0.101533 m -1.94028,3.704166 c 7.62055,-1.000595 16.092,0.486329 23.45973,2.328712 34.24041,8.562193 59.39784,41.59067 57.84861,76.97144 -0.41676,9.51783 -2.31709,18.9078 -6.06569,27.69305 -10.56892,24.76948 -34.11279,42.6578 -60.77876,46.16422 -10.8079,1.42116 -22.413807,0.67367 -32.808328,-2.7143 C 70.107106,218.25492 58.737431,211.8465 49.969153,202.69143 27.231908,178.95117 21.041508,142.90353 36.249472,113.43865 40.455468,105.28969 46.077824,98.005938 52.784433,91.758602 62.48115,82.725928 74.715116,76.593108 87.533046,73.554351 c 4.271621,-1.012675 8.556167,-1.277753 12.876384,-1.84501 M 71.128879,101.09143 c -0.510027,-0.37498 -0.809448,-0.5342 -1.5875,-1.234723 2.905382,-2.476302 7.031358,-4.65032 10.583333,-6.17347 7.83671,-3.360518 16.150892,-5.291807 24.694448,-5.291807 8.69746,0 17.74493,1.927574 25.57639,5.777823 3.18901,1.567841 6.84584,3.403938 9.52499,5.687454 -0.58407,0.682733 -0.6832,0.844013 -1.41125,0.839073 -0.53014,-0.004 -0.79323,-0.12336 -1.41097,-0.1327 -3.34986,-0.0506 -7.18857,-8.2e-4 -10.58333,-8.2e-4 -6.93195,0 -13.88394,-0.008 -20.81389,0 -0.56251,8e-4 -1.05764,0.0267 -1.5875,0.0267 -5.65163,0 -11.540742,-0.0267 -17.286111,-0.0267 H 74.833046 c -0.710928,0 -2.012318,-0.0459 -2.645016,0.0104 -0.507047,0.0451 -0.810927,0.1383 -0.883851,0.54495 -0.05951,0.33188 0.313827,0.98014 0.599125,1.18954 0.435766,0.31984 0.591566,0.25171 1.165852,0.74869 0.500385,0.43303 1.255205,1.23113 1.76389,1.73981 l 4.056943,4.05694 c 2.763063,2.76306 5.525119,5.52956 8.290277,8.29028 0.624081,0.62308 1.318186,1.22387 1.865424,1.79383 0.391943,0.40822 0.707498,0.78721 1.133866,1.189 2.375739,2.23877 4.901618,4.74169 7.231266,7.07134 2.306561,2.30656 5.756008,5.55572 7.408338,7.58472 1.94936,-1.94935 5.05017,-5.05018 7.40833,-7.40834 2.20895,-2.20895 4.50243,-4.50242 6.70278,-6.70277 0.50194,-0.50194 0.93072,-0.93073 1.41111,-1.41111 0.48038,-0.48039 0.90916,-0.90917 1.41111,-1.41112 2.48955,-2.48955 5.08538,-5.08538 7.58472,-7.58472 l 4.58611,-4.58611 c 0.50041,-0.50041 1.30156,-1.34602 1.76362,-1.71475 0.57232,-0.45671 0.88168,-0.48607 1.23499,-0.5783 l -0.35277,1.23472 -0.70556,-0.70556 M 63.191379,98.269207 c -0.0042,0.355568 0.02006,0.975759 -0.282821,1.282761 -0.291438,0.295417 -0.654788,0.340481 -0.952037,0.39851 -0.434557,0.08483 -1.775746,0.117042 -2.274411,-0.224706 -1.621528,-1.111268 -1.296823,-3.758168 -0.246208,-5.160052 0.71002,-0.947423 1.591204,-1.497949 2.697144,-1.570889 0.617159,-0.04071 1.054362,0.145102 1.41111,0.335489 m 85.901384,0.09418 c 1.01966,-0.242911 2.02512,0.195585 2.52511,1.143267 0.89416,1.694781 0.65585,4.598988 -1.64316,5.190403 -1.09447,0.28155 -2.16643,-0.166291 -2.72124,-1.313249 -0.30933,-0.639453 -0.27732,-1.115383 -0.2771,-1.763212 1.8e-4,-0.566513 0.007,-1.056857 0.24974,-1.5875 0.37665,-0.824217 0.89596,-1.438455 1.86665,-1.669709 m -86.430551,6.255822 0.529167,1.587498 m 10.93611,83.07917 c 0,2.31509 -0.173572,4.57511 -0.01579,6.87916 0.0937,1.36824 0.118456,2.70563 0.405725,4.05695 0.141012,0.66333 0.316405,1.31295 0.572037,1.94027 1.541447,3.78271 4.891691,1.47819 6.968583,-0.54495 3.233753,-3.15005 5.445479,-7.04714 7.665976,-10.92032 1.031409,-1.79908 2.074826,-3.86773 3.100689,-5.11528 1.063242,1.31724 1.873351,3.97796 2.681081,5.99722 2.044692,5.11157 4.0585,10.23445 6.103123,15.34583 0.63961,1.59899 1.35658,3.35011 1.97498,4.93889 0.22612,0.58095 0.62649,1.33792 -0.0415,1.65746 -0.88242,0.42211 -2.69194,-0.0339 -3.8385,-0.0675 -3.491422,-0.10239 -7.028383,-0.85562 -10.406951,-1.70047 C 77.926803,203.88277 67.557086,197.17681 59.51701,188.22754 44.393775,171.39413 40.748791,146.53559 49.115647,125.78587 c 2.810917,-6.97104 6.965659,-12.91408 11.9087,-18.52083 2.297422,-2.6059 5.536255,-5.70999 8.517024,-7.408333 m 70.555549,0 c 2.54644,2.021163 5.62162,4.464503 7.93056,6.879163 4.52792,4.73528 8.50061,10.25884 11.24139,16.22778 8.41228,18.3205 7.3273,40.14918 -3.37194,57.32639 -7.1638,11.5012 -18.01339,20.0483 -30.61667,24.83694 -4.028,1.53044 -8.26136,2.46325 -12.52361,3.0555 -1.74891,0.24303 -5.10633,0.58728 -6.70278,0.49732 -0.56986,-0.0321 -0.92433,-0.13154 -1.41111,-0.16754 m -0.52917,-107.77361 c 0,1.33668 0.0267,2.15783 0.0267,3.70417 0,0.73601 -0.0267,1.49569 -0.0267,2.29305 0,0.58873 -0.15361,1.58739 0.18129,2.01024 0.42077,0.53127 1.6125,0.25033 2.28816,0.33331 1.92617,0.23656 3.90388,0.80937 5.64444,1.67965 2.14766,1.07383 4.07039,2.6198 5.62076,4.44347 1.2074,1.42024 1.85827,2.79285 2.49313,3.88056 m 18.16805,-18.16806 c -0.22869,1.13722 -0.86649,1.6861 -1.5875,2.46945 m -65.087495,-0.88195 c 0.07237,0.22362 -0.04829,0.79853 0.881946,0.35278 v 0 m -0.529166,0.52917 c 1.07202,2.94495 3.119157,5.7437 4.660966,8.46666 2.16295,3.81995 4.400706,7.61911 6.492229,11.46528 0.858269,1.57831 1.865831,3.45071 2.78425,4.93616 0.209166,0.3383 0.693341,0.90581 1.007158,0.80328 0.551812,-0.18026 0.419541,-0.6421 0.394149,-1.32972 -0.03977,-1.07702 -0.08932,-2.40338 0.03648,-3.52778 0.2008,-1.79476 0.683803,-3.70734 1.5581,-5.11527 m 15.169453,-14.64028 c 1.33467,0 3.68736,0 5.46806,0 m 26.81111,0.17639 -4.55073,8.11389 -8.14927,14.11111 -1.04064,1.75436 -0.95108,1.11359 -1.17307,2.6001 -2.86837,4.93889 -1.37096,1.94028 -0.70977,1.41111 -0.70556,-0.70555 1.05834,-0.35278 M 88.944156,118.73032 c 0.843714,-1.02605 1.353664,-2.19002 2.43501,-3.52778 1.109152,-1.37217 2.419308,-2.54862 3.91499,-3.48736 1.644054,-1.03187 3.414384,-1.80017 5.291664,-2.26733 1.29898,-0.32324 2.51608,-0.41837 3.35139,-0.41892 m 16.40417,10.40694 c 0.75188,1.18717 1.4077,3.87567 1.41111,5.99723 0.001,0.69122 -0.0314,2.29123 -0.0653,2.8214 -0.0411,0.64293 0.11925,0.80958 0.24172,1.05915 m -34.748614,0 c 0.485037,0.86114 0.698214,1.54789 1.069634,2.46945 0.588901,1.46117 1.845725,3.38214 2.669921,4.7625 0.542866,0.90918 0.880044,1.45644 1.378447,2.11517 0.143246,0.18932 0.411882,0.54395 0.719299,0.74311 0.863087,0.55915 0.708544,0.14762 1.747422,0.8275 0.441463,0.28892 1.326012,0.86056 1.76389,1.10925 0.286194,0.16254 0.746379,0.49265 1.168574,0.36679 0.527461,-0.15725 0.691216,-0.64134 1.132102,-1.10502 1.668055,-1.75426 4.561715,-4.56921 5.813215,-5.82069 m 0.35278,0 c 1.14259,1.14258 4.2815,4.20817 5.8113,5.82001 0.35507,0.37411 0.58661,0.69351 0.96483,1.00879 0.48679,0.40579 0.67703,0.58221 1.17715,1.10952 0.39342,0.41479 0.60058,0.61537 1.04255,1.05751 0.61645,0.61669 1.11745,1.11745 1.94028,1.94028 6.87362,6.87362 13.76252,13.76247 20.6375,20.6375 m -43.391671,-26.63472 0.352777,1.05833 c 0.344829,-0.34483 0.25495,-0.25495 0.881946,-0.88194 m 17.815278,1.76388 c 0.75473,-0.53897 1.49342,-1.02408 2.82222,-1.76388 m 0.70556,0.70555 c -0.50101,1.58324 -1.17007,2.23567 -1.76389,3.35139 m -20.461114,-3.175 c 0.417745,1.32007 1.073547,2.22476 1.76389,3.175 0.654023,-0.46071 1.366819,-0.88695 1.940277,-2.11667 m 14.287497,-0.17639 c -1.23808,0.94714 -5.75157,1.64713 -8.29027,1.58492 -1.93204,-0.0473 -4.311519,-0.78776 -5.291671,-1.40853 m -2.645833,2.11667 -1.059151,1.23499 -1.586683,1.58723 -3.704166,3.70417 -15.875,15.875 m 40.745834,-22.225 c -0.4875,1.04418 -1.37171,2.49784 -2.26665,4.05694 -1.42025,2.47425 -2.83538,4.95724 -4.29513,7.40834 -0.53044,0.89066 -1.31297,2.35916 -1.83738,3.16778 -0.38214,0.58924 -0.67049,0.81307 -0.94945,1.06555 -1.43539,-1.68846 -2.66615,-4.35232 -3.9071,-6.52639 -0.970537,-1.70033 -1.882887,-3.39533 -2.902112,-5.11528 -0.82713,-1.39578 -1.550448,-2.81485 -2.363012,-3.88055 m -60.325,15.34583 1.555925,2.11667 0.02913,1.5875 -0.703106,3.35139 m 8.466666,-6.87917 c -0.08555,1.99249 0.119454,5.16945 -0.352777,6.52639 -0.323651,-0.1889 -0.644645,-0.35271 -1.234994,-0.66718 -1.42072,-0.75679 -5.079413,-3.44966 -5.996951,-3.74254 m 67.733331,-2.11667 c 0.002,0.67141 0.0386,1.18904 0.71508,2.29306 0.45555,0.74339 1.04335,1.84292 1.50366,2.64583 1.14079,1.98985 2.28928,3.98226 3.38501,5.99722 1.52518,2.80471 3.22089,5.69788 4.77869,8.46667 0.37753,0.67102 0.69626,1.08616 1.01002,1.76389 0.37947,0.81965 0.80852,1.44563 1.28291,2.29305 2.00894,3.58869 3.88262,7.37927 6.48242,10.58334 1.47712,1.82045 4.68584,6.27231 7.47693,5.54087 1.65977,-0.43496 2.34639,-2.47929 2.64515,-3.95337 0.74938,-3.69739 0.36373,-7.39139 0.35346,-11.1125 m 36.68889,-24.34167 c 0,2.16013 0,4.2748 0,6.87917 m -66.32222,-5.64445 c -1.07042,1.18965 -1.96813,3.01326 -2.97221,4.7625 -1.894022,3.29964 -3.839194,6.57086 -5.720384,9.87778 -0.957575,1.68329 -2.164988,2.83905 -2.419903,4.58611 m 25.576387,-13.58194 2.29305,0.0267 3.175,-0.0267 m -3.175,0.17638 c -0.0953,1.08495 -0.59873,2.11411 -1.16423,3.52778 -0.91563,2.28901 -1.80072,4.58982 -2.71632,6.87917 -0.54381,1.35971 -0.88841,2.35039 -1.41111,3.175 m -31.044444,-13.40556 3.351387,0.0267 2.116667,-0.0267 m -2.116667,0.35278 c 0.403389,0.86235 0.824876,1.97395 1.375865,3.35139 1.11102,2.77748 2.344979,6.94924 3.739415,8.99583 m 22.577777,1.5875 c -0.92579,1.31157 -1.7942,3.84454 -2.52566,5.82084 -1.84446,4.98346 -3.96181,9.87088 -5.90522,14.81666 -0.85495,2.17578 -1.97648,4.95564 -2.32885,5.99722 m -1.41111,9.525 c 8e-4,-1.34074 -0.14056,-1.66652 0.23233,-2.9801 0.14228,-0.50121 0.50934,-0.72372 1.00321,-0.83009 0.60863,-0.13108 1.0743,0.007 1.40853,0.48493 0.70723,1.0117 -0.0471,2.14999 -0.8829,2.83611 -0.46798,0.38417 -1.22938,0.49185 -1.57988,0.94755 -0.57619,0.74913 -0.18129,1.98031 -0.18129,2.89299 m 1.23473,-3.175 c 1.20969,1.31334 1.91303,2.10878 2.99861,3.35139"
    stroke="#cea17a"
    stroke-width="0.264583"
    stroke-linecap="round"
    stroke-linejoin="round"
    vector-effect="non-scaling-stroke"
  />
</svg>
